#!OML:ASF H:\ManfredObstacles\Project 1\Capture day 1\Session 1\Male.ASF
:FULLY-SPECIFIED
:DEGREES
516
root 1.10303 16.4152 -17.5349 -169.869 -11.1357 -180.735
lowerback -12.2833 -3.08637 -2.52061
upperback 1.2587 -3.82919 0.943395
thorax 8.48126 -2.00305 1.67573
lowerneck 0.377602 -3.06504 -6.78693
upperneck -3.76311 -4.07318 9.85068
head -0.90734 -2.14895 4.50481
rclavicle -1.01007e-014 3.97569e-015
rhumerus -43.7969 -29.8481 -66.3432
rradius 22.5565
rwrist 41.4436
rhand -1.19945 -3.44422
rfingers 7.12502
rthumb 24.441 -31.9051
lclavicle -1.01007e-014 3.97569e-015
lhumerus -32.644 39.3594 69.7512
lradius 9.80689
lwrist -58.5947
lhand -9.56087 9.46299
lfingers 7.12502
lthumb 16.4065 38.7891
rfemur -33.5649 -3.14792 16.3567
rtibia 24.7986
rfoot -7.49673 6.47989
rtoes 5.92615
lfemur 7.09772 -3.68324 -19.5187
ltibia 2.54444e-014
lfoot -0.487439 -17.8609
ltoes 7.51223
517
root 1.14214 16.4315 -17.6569 -170.152 -11.1003 -180.14
lowerback -11.832 -2.92247 -1.88705
upperback 1.26277 -3.72892 1.12944
thorax 8.19158 -1.9303 1.55969
lowerneck 0.420923 -3.01061 -6.9117
upperneck -4.03412 -3.9919 9.91278
head -1.00776 -2.11319 4.55969
rclavicle 4.31735e-014 -2.28602e-015
rhumerus -43.1416 -29.5976 -66.6451
rradius 22.554
rwrist 41.1739
rhand -1.27307 -3.32284
rfingers 7.12502
rthumb 24.3704 -31.7932
lclavicle 4.31735e-014 -2.28602e-015
lhumerus -32.3315 39.1951 70.0644
lradius 9.29917
lwrist -57.6292
lhand -9.9337 10.1666
lfingers 7.12502
lthumb 16.0475 39.522
rfemur -33.0306 -3.57579 17.4035
rtibia 24.9063
rfoot -7.67934 7.44723
rtoes 5.33946
lfemur 7.77337 -3.56643 -18.7014
ltibia 3.49861e-014
lfoot -0.18136 -17.5112
ltoes 4.6846
518
root 1.18202 16.45 -17.7754 -170.623 -11.1637 -179.8
lowerback -11.1667 -2.86668 -1.60681
upperback 1.33469 -3.7141 1.27505
thorax 7.87893 -1.91494 1.58918
lowerneck 0.582013 -2.99883 -6.98445
upperneck -4.34222 -3.97122 9.94723
head -1.13786 -2.11062 4.598
rclavicle -4.80935e-014 8.24956e-015
rhumerus -42.4616 -29.0375 -67.1836
rradius 22.9773
rwrist 40.7882
rhand -1.04663 -3.36007
rfingers 7.12502
rthumb 24.5875 -31.8011
lclavicle -4.80935e-014 8.24956e-015
lhumerus -32.3846 39.03 70.1485
lradius 9.20887
lwrist -56.7721
lhand -9.99304 10.5427
lfingers 7.12502
lthumb 15.9904 39.9027
rfemur -32.2099 -3.97817 18.1151
rtibia 24.9885
rfoot -8.10118 8.19236
rtoes 5.32459
lfemur 8.65658 -3.60385 -18.1295
ltibia 3.18055e-015
lfoot 0.346103 -17.1469
ltoes 2.93168
519
root 1.22879 16.4638 -17.89 -171.133 -11.4057 -179.717
lowerback -10.2959 -2.93736 -1.69249
upperback 1.34542 -3.81199 1.35671
thorax 7.40866 -1.968 1.74729
lowerneck 0.851197 -2.99174 -6.89559
upperneck -4.54462 -3.96329 9.85055
head -1.25735 -2.11367 4.55706
rclavicle 3.54458e-014 8.74653e-015
rhumerus -41.9044 -27.7663 -68.1567
rradius 23.8337
rwrist 39.75
rhand -0.664601 -3.48062
rfingers 7.12502
rthumb 24.9536 -31.8713
lclavicle 3.54458e-014 8.74653e-015
lhumerus -32.7315 38.8404 69.9876
lradius 9.39519
lwrist -56.0915
lhand -9.5562 10.7654
lfingers 7.12502
lthumb 16.411 40.0912
rfemur -31.2625 -4.32118 18.5173
rtibia 25.0714
rfoot -8.61016 8.47626
rtoes 5.10092
lfemur 9.51007 -3.86713 -17.7855
ltibia 3.49861e-014
lfoot 1.03002 -16.8726
ltoes 1.67739
520
root 1.27928 16.476 -18.006 -171.385 -11.634 -179.736
lowerback -9.73509 -2.96868 -1.89283
upperback 1.35722 -3.83868 1.40639
thorax 7.11972 -1.98989 1.93424
lowerneck 0.986369 -2.96985 -6.73205
upperneck -4.83912 -3.92853 9.7739
head -1.38613 -2.10598 4.50741
rclavicle -4.53478e-015 5.96354e-016
rhumerus -41.2641 -26.3434 -69.285
rradius 24.8437
rwrist 38.3925
rhand -0.449219 -3.54099
rfingers 7.12502
rthumb 25.16 -31.9029
lclavicle -4.53478e-015 5.96354e-016
lhumerus -32.5837 38.6093 70.1141
lradius 9.22375
lwrist -55.6495
lhand -9.12975 10.8319
lfingers 7.12502
lthumb 16.8215 40.1233
rfemur -30.5594 -4.64471 18.837
rtibia 25.1477
rfoot -9.15289 8.65056
rtoes 5.46044
lfemur 10.0824 -4.12787 -17.5227
ltibia -9.54166e-015
lfoot 1.65347 -16.6458
ltoes -0.0842876
521
root 1.32538 16.4931 -18.1253 -171.21 -11.7242 -179.702
lowerback -9.70504 -2.93337 -1.93713
upperback 1.27051 -3.78942 1.43806
thorax 7.01276 -1.96744 2.00412
lowerneck 0.959393 -2.97855 -6.6508
upperneck -5.05449 -3.93363 9.82621
head -1.45204 -2.11699 4.51476
rclavicle -1.30949e-014 1.78906e-015
rhumerus -40.6594 -24.9437 -70.4305
rradius 25.9456
rwrist 37.0653
rhand -0.606885 -3.62899
rfingers 7.12502
rthumb 25.009 -32.012
lclavicle -1.30949e-014 1.78906e-015
lhumerus -32.446 38.2968 70.1897
lradius 9.12366
lwrist -55.4945
lhand -8.71758 10.5941
lfingers 7.12502
lthumb 17.2183 39.8513
rfemur -30.3883 -5.09484 19.2859
rtibia 25.2263
rfoot -9.65455 9.11275
rtoes 6.5385
lfemur 10.2186 -4.22789 -17.1808
ltibia -9.54166e-015
lfoot 2.43665 -16.395
ltoes -0.83337
522
root 1.36949 16.5111 -18.2414 -170.852 -11.8353 -179.579
lowerback -9.90981 -2.9101 -1.84533
upperback 1.11763 -3.77099 1.46974
thorax 6.96163 -1.95479 1.98314
lowerneck 0.881785 -3.01343 -6.59759
upperneck -5.12866 -3.97663 9.86923
head -1.45839 -2.14218 4.51936
rclavicle 1.95057e-015 7.85199e-015
rhumerus -40.2041 -23.6475 -71.5167
rradius 27.187
rwrist 35.9229
rhand -0.83396 -3.69939
rfingers 7.12502
rthumb 24.7913 -32.1125
lclavicle 1.95057e-015 7.85199e-015
lhumerus -32.5074 37.9582 70.1113
lradius 9.33723
lwrist -55.7824
lhand -8.25151 10.1484
lfingers 7.12502
lthumb 17.6668 39.3658
rfemur -30.4826 -5.51592 19.8222
rtibia 25.3389
rfoot -10.0438 9.51908
rtoes 7.49946
lfemur 10.0828 -4.32077 -16.708
ltibia -2.8625e-014
lfoot 3.4522 -16.16
ltoes -0.0222683
523
root 1.41128 16.5215 -18.3509 -170.568 -11.87 -179.395
lowerback -10.1454 -2.90029 -1.7423
upperback 1.09585 -3.77649 1.5584
thorax 7.07235 -1.95661 2.00707
lowerneck 0.716944 -3.01061 -6.68026
upperneck -5.35691 -3.96381 10.0118
head -1.50085 -2.142 4.58889
rclavicle 9.22112e-014 -1.89839e-014
rhumerus -39.5011 -22.4458 -72.5714
rradius 28.3966
rwrist 34.7265
rhand -0.946321 -3.71466
rfingers 7.12502
rthumb 24.6837 -32.1425
lclavicle 9.22112e-014 -1.89839e-014
lhumerus -32.2887 37.8491 70.1956
lradius 9.50001
lwrist -56.3322
lhand -8.03109 9.63931
lfingers 7.12502
lthumb 17.8789 38.8375
rfemur -30.5573 -5.84912 20.3932
rtibia 25.4919
rfoot -10.3636 9.94161
rtoes 7.77685
lfemur 10.033 -4.32886 -16.1982
ltibia 1.27222e-014
lfoot 4.16318 -16.1138
ltoes 0.186044
524
root 1.44548 16.5342 -18.4575 -170.177 -11.703 -179.176
lowerback -10.5185 -2.83942 -1.4777
upperback 1.06719 -3.73219 1.61039
thorax 7.238 -1.927 1.90419
lowerneck 0.690866 -2.93239 -6.75866
upperneck -6.00838 -3.81498 10.5941
head -1.5333 -2.11061 4.3415
rclavicle 6.13748e-014 -1.5704e-014
rhumerus -38.7361 -21.4775 -73.5402
rradius 29.453
rwrist 33.3867
rhand -1.11086 -3.71938
rfingers 7.12502
rthumb 24.5259 -32.1687
lclavicle 6.13748e-014 -1.5704e-014
lhumerus -32.1102 37.8246 70.2259
lradius 9.8386
lwrist -56.8465
lhand -7.97392 9.04846
lfingers 7.12502
lthumb 17.9339 38.2416
rfemur -30.7964 -6.17233 21.0234
rtibia 25.6711
rfoot -10.5907 10.5523
rtoes 7.38364
lfemur 9.94048 -4.12153 -15.7209
ltibia 1.90833e-014
lfoot 4.47166 -16.1322
ltoes -0.900592
